# xmcd
# 
# Track frame offsets:
#     182
#     15320
#     27192
#     44045
#     58445
#     75422
#     87605
#     103282
#     118230
#     130935
#     143737
#     157087
# 
# Disc length: 2277
# 
# Revision: 7
# Processed by: cddbd v1.5.2PL0 Copyright (c) Steve Scherf et al.
# Submitted via: fre:ac v1.0.17
# 
DISCID=aa08e30c
DTITLE=The Rolling Stones - Flowers
DYEAR=1967
DGENRE=Rock
TTITLE0=Ruby Tuesday
TTITLE1=Have You Seen Your Mother, Baby, Standing In The Shadow
TTITLE2=Let's Spend The Night Together
TTITLE3=Lady Jane
TTITLE4=Out Of Time
TTITLE5=My Girl
TTITLE6=Back Street Girl
TTITLE7=Please Go Home
TTITLE8=Mother's Little Helper
TTITLE9=Take It Or Leave It
TTITLE10=Ride On, Baby
TTITLE11=Sittin' On A Fence
EXTD=YEAR: 1987
EXTT0=
EXTT1=
EXTT2=
EXTT3=
EXTT4=
EXTT5=
EXTT6=
EXTT7=
EXTT8=
EXTT9=
EXTT10=
EXTT11=
PLAYORDER=
